<?xml version="1.0" encoding="UTF-8" standalone="no" ?>
<!DOCTYPE svg PUBLIC "-//W3C//DTD SVG 1.1//EN" "http://www.w3.org/Graphics/SVG/1.1/DTD/svg11.dtd">
<svg xmlns="http://www.w3.org/2000/svg" xmlns:xlink="http://www.w3.org/1999/xlink" version="1.1" width="1080" height="1080" viewBox="0 0 1080 1080" xml:space="preserve">
<desc>Created with Fabric.js 5.2.4</desc>
<defs>
</defs>
<g transform="matrix(1 0 0 1 540 540)" id="285ad363-524d-48ec-84ae-e3356bf3ea9c"  >
<rect style="stroke: none; stroke-width: 1; stroke-dasharray: none; stroke-linecap: butt; stroke-dashoffset: 0; stroke-linejoin: miter; stroke-miterlimit: 4; fill: rgb(255,255,255); fill-rule: nonzero; opacity: 1; visibility: hidden;" vector-effect="non-scaling-stroke"  x="-540" y="-540" rx="0" ry="0" width="1080" height="1080" />
</g>
<g transform="matrix(1 0 0 1 540 540)" id="191fdac6-cc97-4f6e-ae18-49b22506c043"  >
</g>
<g transform="matrix(8.79 0 0 8.79 540 540)" id="Layer_1"  >
<path style="stroke: none; stroke-width: 1; stroke-dasharray: none; stroke-linecap: butt; stroke-dashoffset: 0; stroke-linejoin: miter; stroke-miterlimit: 4; fill: rgb(255,255,255); fill-rule: evenodd; opacity: 1;"  transform=" translate(-61.44, -54.91)" d="M 59.69 20.93 C 61.089999999999996 20.93 62.47 21.009999999999998 63.83 21.169999999999998 L 63.83 9.37 C 63.18 9.129999999999999 62.61 8.75 62.129999999999995 8.27 C 61.24999999999999 7.39 60.709999999999994 6.1899999999999995 60.709999999999994 4.85 C 60.709999999999994 3.5199999999999996 61.24999999999999 2.3099999999999996 62.129999999999995 1.4299999999999997 C 63.01 0.5499999999999997 64.21 0.009999999999999787 65.55 0.009999999999999787 C 66.88 0.009999999999999787 68.09 0.5499999999999998 68.97 1.4299999999999997 C 69.85 2.3099999999999996 70.39 3.51 70.39 4.85 C 70.39 6.18 69.85 7.39 68.97 8.27 C 68.5 8.74 67.91 9.129999999999999 67.27 9.37 L 67.27 21.74 C 70.49 22.439999999999998 73.53999999999999 23.58 76.36 25.09 L 76.36 20.53 C 76.36 19.580000000000002 77.13 18.810000000000002 78.08 18.810000000000002 L 90.12 18.810000000000002 C 90.36 18.200000000000003 90.73 17.650000000000002 91.19 17.19 C 92.07 16.310000000000002 93.27 15.770000000000001 94.61 15.770000000000001 C 95.94 15.770000000000001 97.15 16.310000000000002 98.03 17.19 C 98.91 18.07 99.45 19.270000000000003 99.45 20.61 C 99.45 21.939999999999998 98.91 23.15 98.03 24.03 C 97.15 24.91 95.95 25.450000000000003 94.61 25.450000000000003 L 94.61 25.450000000000003 C 93.27 25.450000000000003 92.06 24.910000000000004 91.2 24.03 C 90.7 23.53 90.31 22.92 90.07000000000001 22.240000000000002 L 79.82 22.240000000000002 L 79.82 27.200000000000003 C 86.97999999999999 32.160000000000004 92.22 39.690000000000005 94.19999999999999 48.46000000000001 L 116.03999999999999 48.46000000000001 L 116.03999999999999 30.83 C 115.50999999999999 30.59 115.02 30.25 114.61999999999999 29.84 C 113.74 28.96 113.19999999999999 27.759999999999998 113.19999999999999 26.42 C 113.19999999999999 25.090000000000003 113.74 23.880000000000003 114.61999999999999 23 C 115.49999999999999 22.12 116.69999999999999 21.58 118.03999999999999 21.58 C 119.36999999999999 21.58 120.58 22.119999999999997 121.46 23 C 122.33999999999999 23.88 122.88 25.08 122.88 26.42 C 122.88 27.75 122.33999999999999 28.96 121.46 29.840000000000003 C 120.91 30.390000000000004 120.22999999999999 30.800000000000004 119.47999999999999 31.040000000000003 L 119.47999999999999 50.19 C 119.47999999999999 51.14 118.71 51.91 117.75999999999999 51.91 L 94.81 51.91 C 94.99000000000001 53.349999999999994 95.08 54.81999999999999 95.08 56.31999999999999 C 95.08 58.31999999999999 94.91 60.279999999999994 94.59 62.18999999999999 L 113.5 62.18999999999999 C 113.74 61.53999999999999 114.12 60.96999999999999 114.6 60.48999999999999 C 115.47999999999999 59.609999999999985 116.67999999999999 59.069999999999986 118.02 59.069999999999986 C 119.35 59.069999999999986 120.56 59.609999999999985 121.44 60.48999999999999 C 122.32 61.36999999999999 122.86 62.569999999999986 122.86 63.90999999999999 C 122.86 65.24 122.32 66.44999999999999 121.44 67.32999999999998 C 120.56 68.20999999999998 119.36 68.74999999999999 118.02 68.74999999999999 C 116.69 68.74999999999999 115.47999999999999 68.20999999999998 114.6 67.32999999999998 C 114.13 66.85999999999999 113.74 66.27999999999999 113.5 65.62999999999998 L 93.84 65.62999999999998 C 91.62 73.76999999999998 86.58 80.73999999999998 79.82000000000001 85.41999999999999 L 79.82000000000001 87.57 L 90.07000000000001 87.57 C 90.31 86.88999999999999 90.7 86.27999999999999 91.2 85.77999999999999 C 92.06 84.89999999999999 93.28 84.35999999999999 94.61 84.35999999999999 L 94.61 84.35999999999999 C 95.95 84.35999999999999 97.15 84.89999999999999 98.03 85.77999999999999 C 98.91 86.65999999999998 99.45 87.86999999999999 99.45 89.19999999999999 C 99.45 90.53999999999999 98.91 91.74 98.03 92.61999999999999 C 97.15 93.49999999999999 95.94 94.03999999999999 94.61 94.03999999999999 C 93.27 94.03999999999999 92.07 93.49999999999999 91.19 92.61999999999999 C 90.74 92.16999999999999 90.37 91.61999999999999 90.12 90.99999999999999 L 78.09 90.99999999999999 C 77.14 90.99999999999999 76.37 90.22999999999999 76.37 89.27999999999999 L 76.37 87.52999999999999 C 73.55000000000001 89.03999999999999 70.49000000000001 90.17999999999999 67.28 90.87999999999998 L 67.28 100.43999999999998 C 67.93 100.67999999999998 68.51 101.06999999999998 68.98 101.53999999999998 C 69.86 102.41999999999997 70.4 103.62999999999998 70.4 104.95999999999998 C 70.4 106.29999999999998 69.86 107.49999999999999 68.98 108.37999999999998 C 68.10000000000001 109.25999999999998 66.89 109.79999999999998 65.56 109.79999999999998 C 64.22 109.79999999999998 63.02 109.25999999999998 62.14 108.37999999999998 C 61.26 107.49999999999999 60.72 106.28999999999998 60.72 104.95999999999998 C 60.72 103.61999999999998 61.26 102.41999999999997 62.14 101.53999999999998 C 62.62 101.05999999999997 63.19 100.67999999999998 63.84 100.43999999999998 L 63.84 91.45999999999998 C 62.480000000000004 91.61999999999998 61.1 91.69999999999997 59.7 91.69999999999997 C 57.61 91.69999999999997 55.56 91.51999999999997 53.57 91.16999999999997 L 53.57 104.69999999999997 C 53.57 105.64999999999998 52.8 106.41999999999997 51.85 106.41999999999997 L 32.69 106.41999999999997 C 32.449999999999996 107.17999999999998 32.04 107.85999999999997 31.49 108.39999999999998 C 30.61 109.27999999999997 29.4 109.81999999999998 28.07 109.81999999999998 C 26.73 109.81999999999998 25.53 109.27999999999997 24.65 108.39999999999998 C 23.77 107.51999999999998 23.229999999999997 106.30999999999997 23.229999999999997 104.97999999999998 C 23.229999999999997 103.63999999999997 23.769999999999996 102.43999999999997 24.65 101.55999999999997 C 25.529999999999998 100.67999999999998 26.74 100.13999999999997 28.07 100.13999999999997 C 29.41 100.13999999999997 30.61 100.67999999999998 31.490000000000002 101.55999999999997 C 31.900000000000002 101.96999999999997 32.230000000000004 102.44999999999997 32.480000000000004 102.97999999999998 L 50.120000000000005 102.97999999999998 L 50.120000000000005 90.39 C 46.830000000000005 89.47 43.730000000000004 88.08 40.900000000000006 86.3 C 40.59 86.58 40.190000000000005 86.75 39.74000000000001 86.75 L 29.28 86.75 C 29.040000000000003 87.38 28.66 87.94 28.19 88.4 C 27.310000000000002 89.28 26.1 89.82000000000001 24.770000000000003 89.82000000000001 C 23.440000000000005 89.82000000000001 22.230000000000004 89.28 21.35 88.4 C 20.470000000000002 87.53 19.93 86.32000000000001 19.93 84.98 C 19.93 83.64 20.47 82.44 21.35 81.56 C 22.23 80.68 23.44 80.14 24.770000000000003 80.14 C 26.100000000000005 80.14 27.310000000000002 80.68 28.190000000000005 81.56 C 28.680000000000003 82.05 29.070000000000004 82.65 29.310000000000006 83.31 L 36.82000000000001 83.31 C 30.300000000000008 77.78 25.81000000000001 69.94 24.620000000000008 61.040000000000006 L 6.84 61.040000000000006 L 6.84 78.68 C 7.37 78.92 7.859999999999999 79.26 8.26 79.67 C 9.14 80.55 9.68 81.75 9.68 83.09 C 9.68 84.42 9.14 85.63000000000001 8.26 86.51 C 7.38 87.39 6.18 87.93 4.84 87.93 C 3.51 87.93 2.3 87.39 1.42 86.51 C 0.54 85.64 0 84.43 0 83.09 C 0 81.76 0.54 80.55 1.42 79.67 C 1.97 79.12 2.65 78.71000000000001 3.4 78.47 L 3.4 59.33 C 3.4 58.379999999999995 4.17 57.61 5.12 57.61 L 24.32 57.61 C 24.3 57.18 24.3 56.75 24.3 56.32 C 24.3 53.21 24.7 50.2 25.45 47.33 L 9.37 47.33 C 9.129999999999999 47.98 8.75 48.55 8.27 49.03 C 7.39 49.910000000000004 6.1899999999999995 50.45 4.85 50.45 C 3.5199999999999996 50.45 2.3099999999999996 49.910000000000004 1.4299999999999997 49.03 C 0.5499999999999997 48.15 0.009999999999999787 46.95 0.009999999999999787 45.61 C 0.009999999999999787 44.28 0.5499999999999998 43.07 1.4299999999999997 42.19 C 2.3099999999999996 41.309999999999995 3.51 40.769999999999996 4.85 40.769999999999996 C 6.18 40.769999999999996 7.39 41.309999999999995 8.27 42.19 C 8.74 42.66 9.129999999999999 43.239999999999995 9.37 43.89 L 26.54 43.89 C 28.86 37.7 32.87 32.34 38 28.36 L 38 26.52 L 29.3 26.52 C 29.060000000000002 27.18 28.67 27.78 28.18 28.27 C 27.3 29.15 26.09 29.689999999999998 24.759999999999998 29.689999999999998 C 23.429999999999996 29.689999999999998 22.22 29.15 21.339999999999996 28.269999999999996 C 20.459999999999997 27.389999999999997 19.919999999999995 26.189999999999998 19.919999999999995 24.849999999999994 C 19.919999999999995 23.509999999999994 20.459999999999994 22.299999999999994 21.339999999999996 21.429999999999993 C 22.219999999999995 20.549999999999994 23.429999999999996 20.00999999999999 24.759999999999998 20.00999999999999 C 26.09 20.00999999999999 27.299999999999997 20.54999999999999 28.18 21.429999999999993 C 28.65 21.89999999999999 29.02 22.459999999999994 29.27 23.07999999999999 L 39.730000000000004 23.07999999999999 C 40.68000000000001 23.07999999999999 41.45 23.84999999999999 41.45 24.79999999999999 L 41.45 25.99999999999999 C 44.13 24.38999999999999 47.040000000000006 23.11999999999999 50.11 22.24999999999999 L 50.11 6.84 L 32.48 6.84 C 32.239999999999995 7.37 31.9 7.859999999999999 31.49 8.26 C 30.61 9.14 29.409999999999997 9.68 28.07 9.68 C 26.740000000000002 9.68 25.53 9.14 24.65 8.26 C 23.77 7.38 23.229999999999997 6.18 23.229999999999997 4.84 C 23.229999999999997 3.51 23.769999999999996 2.3 24.65 1.42 C 25.53 0.54 26.73 0 28.07 0 C 29.4 0 30.61 0.54 31.490000000000002 1.42 C 32.04 1.97 32.45 2.65 32.690000000000005 3.4 L 51.84 3.4 C 52.790000000000006 3.4 53.56 4.17 53.56 5.12 L 53.56 21.46 C 55.55 21.11 57.6 20.93 59.69 20.93 L 59.69 20.93 z M 45.45 52.78 L 48.28 52.78 L 48.28 52.44 L 48.28 46.809999999999995 C 48.28 43.589999999999996 49.6 40.669999999999995 51.72 38.55 L 51.72 38.55 C 53.839999999999996 36.43 56.769999999999996 35.11 59.989999999999995 35.11 C 63.209999999999994 35.11 66.13 36.43 68.25 38.55 L 68.25 38.55 C 70.37 40.669999999999995 71.69 43.599999999999994 71.69 46.809999999999995 L 71.69 52.44 L 71.69 52.78 L 73.94 52.78 C 74.44 52.78 74.85 53.19 74.85 53.69 L 74.85 72.95 C 74.85 73.45 74.44 73.86 73.94 73.86 L 45.45 73.86 C 44.95 73.86 44.540000000000006 73.45 44.540000000000006 72.95 L 44.540000000000006 53.69 C 44.54 53.19 44.95 52.78 45.45 52.78 L 45.45 52.78 L 45.45 52.78 z M 52.82 52.78 L 67.13 52.78 L 67.13 52.44 L 67.13 46.75 C 67.13 44.78 66.32 42.99 65.03 41.69 L 65.03 41.69 C 63.730000000000004 40.39 61.94 39.589999999999996 59.980000000000004 39.589999999999996 C 58.010000000000005 39.589999999999996 56.220000000000006 40.4 54.92 41.69 C 53.620000000000005 42.989999999999995 52.82 44.78 52.82 46.75 L 52.82 52.44 L 52.82 52.78 L 52.82 52.78 L 52.82 52.78 z M 60.04 63.32 L 61.48 69.99 L 57.52 70 L 58.68 63.24 C 57.6 62.89 56.81 61.88 56.81 60.68 C 56.81 59.2 58.010000000000005 58 59.49 58 C 60.97 58 62.17 59.2 62.17 60.68 C 62.19 61.99 61.26 63.07 60.04 63.32 L 60.04 63.32 L 60.04 63.32 z" stroke-linecap="round" />
</g>
</svg>